<svg width="115" height="159" viewBox="0 0 115 159" fill="none" xmlns="http://www.w3.org/2000/svg">
<path d="M0 62.2323C0 52.1629 7.82606 44 17.48 44H97.52C107.174 44 115 52.1629 115 62.2323V120.768C115 130.837 107.174 139 97.52 139H17.48C7.82606 139 0 130.837 0 120.768V62.2323Z" fill="#E0BED7"/>
<path d="M67 48.8559C66.0402 28.01 67.561 -1.2712 84.5 5.49985C103.286 13.0092 88.8658 38.84 82 55.4998M50 48.8559C50.9838 28.0398 48.1676 -1.29629 31.6809 5.49994C13.4364 13.0207 27.8398 38.8609 34.5 55.4998" stroke="#976A8A" stroke-width="8"/>
<path d="M85.7911 60.0419C92.3932 65.8937 96.3954 73.4928 97.3023 81.4998L16.6977 81.4998C17.6046 73.4928 21.6068 65.8937 28.2089 60.0419C35.7807 53.3305 46.1316 49.4998 57 49.4998C67.8684 49.4998 78.2193 53.3305 85.7911 60.0419Z" fill="white" stroke="#976A8A" stroke-width="7"/>
<path d="M72 77C72 79.1012 71.5862 81.1817 70.7821 83.1229C69.978 85.0641 68.7994 86.828 67.3137 88.3137C65.828 89.7994 64.0641 90.978 62.1229 91.7821C60.1817 92.5861 58.1012 93 56 93C53.8988 93 51.8183 92.5861 49.8771 91.7821C47.9359 90.978 46.172 89.7994 44.6863 88.3137C43.2006 86.828 42.022 85.0641 41.2179 83.1229C40.4139 81.1817 40 79.1011 40 77" stroke="white" stroke-width="4" stroke-linecap="round"/>
</svg>
