<svg width="115" height="159" viewBox="0 0 115 159" fill="none" xmlns="http://www.w3.org/2000/svg">
<g clip-path="url(#clip0_5_179)">
<path d="M0 62.2323C0 52.1629 7.82606 44 17.48 44H97.52C107.174 44 115 52.1629 115 62.2323V120.768C115 130.837 107.174 139 97.52 139H17.48C7.82607 139 0 130.837 0 120.768V62.2323Z" fill="#353535"/>
<path fill-rule="evenodd" clip-rule="evenodd" d="M51.2328 15.7065C54.0612 25.4343 54.4939 38.5006 53.9955 49.0448L46.0045 48.6671C46.4899 38.3951 46.0064 26.3853 43.5509 17.94C42.3057 13.6573 40.7266 10.9156 39.09 9.56423C38.3407 8.94549 37.5921 8.62562 36.7794 8.53102C35.9394 8.43325 34.7803 8.54881 33.2053 9.19805C29.715 10.6369 28.0755 12.7495 27.3222 15.2846C26.4959 18.0659 26.6383 21.7315 27.6519 26.1948C29.1461 32.7746 32.1764 39.8159 35.0719 46.5443C36.1687 49.093 37.2462 51.5967 38.2136 54.0134L30.7865 56.9863C29.984 54.9816 29.0239 52.7515 28.0017 50.3772C25.0252 43.4636 21.5219 35.3265 19.8505 27.9664C18.7113 22.9496 18.2574 17.7052 19.6536 13.0062C21.1228 8.06107 24.5246 4.12341 30.1564 1.80183C32.7031 0.752013 35.2385 0.297656 37.7043 0.58467C40.1975 0.87486 42.3661 1.89448 44.1838 3.39553C47.6815 6.2837 49.8361 10.9028 51.2328 15.7065ZM72.9075 17.8348C70.6948 26.285 70.5179 38.2935 70.9958 48.6719L63.0042 49.0398C62.5223 38.5724 62.626 25.5174 65.1684 15.8083C66.4233 11.0162 68.4394 6.3548 71.9042 3.42978C75.7469 0.185693 80.6441 -0.349208 85.9847 1.7856C91.7201 4.07825 95.2465 7.9768 96.8139 12.931C98.3052 17.6449 97.8959 22.9086 96.7734 27.9395C95.0854 35.5047 91.4247 43.8524 88.3401 50.8865C87.3776 53.0815 86.4711 55.1485 85.6982 57.024L78.3017 53.9757C79.2237 51.7386 80.2377 49.4236 81.2703 47.0662C84.2878 40.1775 87.464 32.9264 88.9654 26.1973C89.9579 21.7493 90.0603 18.1062 89.1865 15.3441C88.3887 12.8224 86.6728 10.6761 83.0153 9.2141C79.8864 7.96338 78.2414 8.54949 77.0648 9.54271C75.5104 10.855 74.0303 13.5472 72.9075 17.8348Z" fill="white"/>
<path d="M88.1127 57.4227C96.3643 64.7366 101 74.6564 101 84.9998H13C13 74.6564 17.6357 64.7366 25.8873 57.4227C34.1389 50.1088 45.3305 45.9998 57 45.9998C68.6695 45.9998 79.8611 50.1088 88.1127 57.4227Z" fill="white"/>
<path fill-rule="evenodd" clip-rule="evenodd" d="M93.0998 77.9998C91.6243 72.3281 88.358 66.9941 83.4695 62.6611L88.1127 57.4227C94.4783 63.0649 98.692 70.2579 100.286 77.9998C100.758 80.2937 101 82.6357 101 84.9998H13C13 82.6357 13.2422 80.2937 13.7144 77.9998C15.308 70.2579 19.5217 63.0649 25.8873 57.4227C34.1389 50.1088 45.3305 45.9998 57 45.9998C68.6695 45.9998 79.8611 50.1088 88.1127 57.4227L83.4695 62.6611C76.5775 56.5523 67.0674 52.9998 57 52.9998C46.9326 52.9998 37.4225 56.5523 30.5305 62.6611C25.642 66.9941 22.3757 72.3281 20.9002 77.9998H93.0998Z" fill="white"/>
<path d="M0 82.2323C0 72.1629 7.82606 64 17.48 64H97.52C107.174 64 115 72.1629 115 82.2323V140.768C115 150.837 107.174 159 97.52 159H17.48C7.82607 159 0 150.837 0 140.768V82.2323Z" fill="black"/>
<path fill-rule="evenodd" clip-rule="evenodd" d="M40 75C41.1046 75 42 75.8954 42 77C42 78.8385 42.3621 80.659 43.0657 82.3576C43.7693 84.0561 44.8005 85.5995 46.1005 86.8995C47.4005 88.1995 48.9439 89.2308 50.6424 89.9343C52.341 90.6379 54.1615 91 56 91C57.8385 91 59.659 90.6379 61.3576 89.9343C63.0561 89.2308 64.5995 88.1995 65.8995 86.8995C67.1995 85.5995 68.2308 84.0561 68.9343 82.3576C69.6379 80.659 70 78.8385 70 77C70 75.8954 70.8954 75 72 75C73.1046 75 74 75.8954 74 77C74 79.3638 73.5344 81.7044 72.6298 83.8883C71.7253 86.0722 70.3994 88.0565 68.7279 89.7279C67.0565 91.3994 65.0722 92.7252 62.8883 93.6298C60.7044 94.5344 58.3638 95 56 95C53.6362 95 51.2956 94.5344 49.1117 93.6298C46.9278 92.7252 44.9435 91.3994 43.2721 89.7279C41.6006 88.0565 40.2748 86.0722 39.3702 83.8883C38.4656 81.7044 38 79.3638 38 77C38 75.8954 38.8954 75 40 75Z" fill="white"/>
<ellipse cx="38.3312" cy="29.018" rx="15" ry="23" transform="rotate(-8.76957 38.3312 29.018)" fill="white"/>
<ellipse cx="79.3404" cy="29.4892" rx="13.267" ry="23" transform="rotate(13.711 79.3404 29.4892)" fill="white"/>
</g>
<defs>
<clipPath id="clip0_5_179">
<rect width="115" height="159" fill="white"/>
</clipPath>
</defs>
</svg>
